<svg xmlns="http://www.w3.org/2000/svg" viewBox="0 0 32 32">
  <rect width="32" height="32" rx="8" fill="#000"/>
  <!-- Anello a torta: 4 sezioni fluo -->
  <!-- Verde: 0°-90° -->
  <path d="M16 4 A12 12 0 0 1 28 16 L22 16 A6 6 0 0 0 16 10 Z" fill="#39FF14"/>
  <!-- Ciano: 90°-180° -->
  <path d="M28 16 A12 12 0 0 1 16 28 L16 22 A6 6 0 0 0 22 16 Z" fill="#7DF9FF"/>
  <!-- Rosso: 180°-252° -->
  <path d="M16 28 A12 12 0 0 1 4.24 20.24 L9.12 18.12 A6 6 0 0 0 16 22 Z" fill="#FF073A"/>
  <!-- Viola: 252°-360° -->
  <path d="M4.24 20.24 A12 12 0 0 1 16 4 L16 10 A6 6 0 0 0 10.12 14.12 Z" fill="#C77DFF"/>
  <!-- Centro nero -->
  <circle cx="16" cy="16" r="6" fill="#000"/>
</svg>